<?xml version="1.0" standalone="no"?>
<!DOCTYPE svg PUBLIC "-//W3C//DTD SVG 20010904//EN"
 "http://www.w3.org/TR/2001/REC-SVG-20010904/DTD/svg10.dtd">
<svg version="1.0" xmlns="http://www.w3.org/2000/svg"
 width="768.000000pt" height="768.000000pt" viewBox="0 0 768.000000 768.000000"
 preserveAspectRatio="xMidYMid meet">

<g transform="translate(0.000000,768.000000) scale(0.100000,-0.100000)"
fill="#000000" stroke="none">
<path d="M3796 6505 c-146 -32 -268 -108 -363 -225 -29 -36 -58 -64 -65 -63
-7 1 -35 10 -63 20 -116 44 -248 53 -374 25 -122 -27 -288 -151 -360 -268 -20
-33 -60 -74 -109 -112 -261 -204 -516 -564 -644 -912 -57 -154 -91 -283 -125
-465 -25 -141 -25 -560 0 -685 10 -47 23 -110 29 -140 18 -94 83 -306 100
-324 4 -6 8 -17 8 -27 0 -26 131 -276 184 -354 221 -318 495 -555 836 -725
106 -53 189 -90 200 -90 6 0 18 -4 28 -10 18 -10 140 -50 207 -68 154 -41 193
-49 315 -64 122 -15 536 -15 660 0 52 6 127 19 165 27 39 9 86 20 105 25 43 9
168 48 195 60 11 4 40 16 65 25 145 53 310 137 434 220 32 22 66 45 75 50 41
25 163 130 239 204 78 77 82 80 82 53 0 -15 -4 -32 -8 -37 -5 -6 -17 -39 -26
-75 -10 -36 -22 -75 -27 -88 -5 -13 -9 -45 -9 -71 0 -65 32 -101 88 -101 54 0
92 40 121 128 13 37 27 76 31 87 5 11 22 61 39 110 16 50 42 124 57 165 89
252 126 357 131 375 3 11 11 34 19 52 8 17 14 36 14 42 0 6 4 19 10 29 5 9 16
37 24 62 14 42 75 214 117 325 10 28 29 79 42 115 22 61 26 65 58 68 62 5 139
46 195 102 87 89 127 201 141 394 12 176 -53 306 -152 306 -134 0 -348 -200
-417 -390 -39 -108 -39 -189 0 -283 17 -39 15 -50 -13 -109 -14 -28 -25 -55
-25 -60 0 -4 -11 -31 -25 -60 -14 -28 -25 -57 -25 -63 0 -6 -8 -29 -19 -51
-10 -21 -28 -66 -39 -99 -12 -33 -40 -112 -62 -175 -23 -63 -48 -137 -57 -165
-8 -27 -22 -64 -29 -82 -8 -17 -14 -36 -14 -42 0 -6 -4 -19 -9 -29 -5 -9 -17
-42 -26 -72 -24 -74 -30 -79 -63 -47 -47 45 -71 37 -170 -55 -200 -188 -287
-256 -467 -365 -192 -117 -461 -223 -630 -248 -22 -3 -49 -9 -60 -12 -17 -5
-18 -4 -7 10 18 22 123 85 287 172 50 26 115 61 145 78 30 17 96 52 145 77 50
26 110 58 135 72 25 14 106 57 180 96 215 112 220 114 281 174 38 36 68 76 84
112 l25 57 0 449 0 448 -26 32 c-33 38 -74 60 -114 60 -16 0 -30 3 -30 7 0 3
11 29 24 57 55 115 74 223 57 324 -37 229 -279 454 -611 567 -83 28 -84 45 -5
61 225 43 390 187 460 402 10 29 23 52 30 52 27 0 233 -260 306 -385 47 -82
92 -176 124 -260 34 -90 85 -289 85 -335 0 -50 23 -121 43 -132 11 -6 24 -5
38 3 26 14 130 123 143 150 16 35 -39 244 -115 434 -114 287 -340 601 -591
821 -54 48 -108 104 -118 123 -22 44 -122 148 -181 188 -172 118 -397 135
-597 46 -19 -8 -35 -13 -36 -11 -2 1 -22 29 -46 61 -53 71 -148 148 -231 187
-122 56 -289 74 -423 45z m317 -263 c129 -60 217 -179 237 -322 12 -81 29
-113 71 -130 64 -27 129 22 134 99 1 22 8 48 16 57 25 31 89 64 151 80 160 41
325 -42 400 -202 28 -60 30 -71 26 -152 -5 -99 -22 -139 -87 -214 -81 -92
-214 -129 -337 -93 -61 18 -89 34 -166 98 -55 46 -102 53 -145 21 -31 -23 -49
-78 -39 -117 9 -36 58 -82 119 -112 29 -14 57 -33 63 -41 11 -14 7 -67 -5 -60
-12 8 -258 46 -360 56 -218 21 -534 7 -771 -35 -111 -20 -110 -20 -110 13 0
23 9 31 53 55 122 64 166 129 132 200 -20 43 -71 71 -112 61 -15 -4 -53 -27
-83 -52 -110 -90 -217 -119 -324 -88 -103 30 -185 100 -229 196 -32 69 -30
187 5 262 36 79 98 142 176 180 54 27 76 32 136 32 87 1 159 -23 213 -69 34
-29 41 -42 46 -82 9 -82 86 -128 145 -87 31 22 48 60 56 128 16 146 142 294
289 342 27 9 77 13 137 11 83 -2 104 -7 163 -35z m-1608 -714 c46 -146 167
-291 296 -355 81 -40 91 -43 163 -57 67 -13 80 -28 39 -44 -131 -49 -179 -69
-253 -109 -236 -126 -374 -308 -395 -518 -8 -82 15 -201 54 -275 28 -54 27
-70 -5 -70 -34 0 -87 -32 -110 -68 -18 -25 -19 -55 -19 -477 l0 -450 32 -59
c55 -103 110 -149 287 -245 105 -57 109 -59 126 -65 8 -4 31 -16 50 -27 34
-21 94 -53 295 -159 55 -29 126 -68 158 -87 32 -18 60 -33 62 -33 2 0 32 -16
67 -36 34 -20 87 -50 117 -66 56 -31 102 -68 85 -68 -35 0 -203 39 -299 70
-62 20 -88 29 -160 60 -160 67 -331 165 -479 275 -137 101 -351 327 -427 450
-76 125 -158 298 -195 415 -73 229 -99 398 -98 640 1 448 132 848 391 1196 58
79 180 214 193 214 4 0 15 -24 25 -52z m1605 -558 c464 -33 875 -161 1052
-328 110 -104 146 -205 114 -316 -38 -129 -146 -244 -336 -356 -57 -34 -445
-230 -454 -230 -3 0 -84 -37 -179 -83 -190 -92 -273 -141 -329 -195 l-38 -36
-37 35 c-82 76 -140 108 -613 329 -375 176 -526 275 -626 412 -44 59 -74 143
-74 204 0 157 148 304 410 407 207 81 545 149 805 160 39 2 90 4 115 5 25 1
110 -3 190 -8z m-1354 -1206 c110 -53 342 -163 517 -245 175 -82 354 -168 398
-189 l79 -40 0 -415 c0 -228 -2 -415 -5 -415 -3 0 -56 29 -118 64 -111 63
-396 212 -849 445 -155 80 -246 132 -263 152 l-25 31 0 342 c0 361 1 366 46
366 12 0 111 -43 220 -96z m2622 84 c9 -9 12 -102 12 -359 0 -346 0 -346 -23
-370 -12 -14 -139 -85 -282 -158 -143 -74 -296 -153 -340 -176 -44 -23 -147
-77 -230 -120 -82 -43 -203 -109 -267 -146 l-118 -68 0 419 0 419 43 25 c23
14 195 97 382 185 187 87 434 204 550 260 205 99 249 113 273 89z"/>
<path d="M2339 5131 c-49 -50 -34 -137 29 -159 41 -14 90 -3 112 26 50 62 4
162 -75 162 -27 0 -44 -8 -66 -29z"/>
<path d="M3459 4741 c-74 -24 -121 -90 -121 -171 0 -125 120 -205 235 -156 67
27 116 118 103 189 -8 45 -43 96 -81 118 -37 22 -101 31 -136 20z"/>
<path d="M4331 4740 c-49 -12 -83 -40 -108 -90 -29 -55 -29 -101 -2 -157 72
-149 301 -108 317 58 6 62 -2 90 -34 129 -45 53 -109 75 -173 60z"/>
<path d="M3553 4228 c-32 -15 -56 -72 -47 -111 8 -39 103 -136 163 -166 104
-53 274 -75 393 -50 118 25 257 110 294 180 24 47 18 96 -15 130 -47 46 -80
40 -173 -32 -58 -46 -123 -64 -228 -64 -112 1 -185 22 -239 70 -62 56 -100 66
-148 43z"/>
<path d="M5410 5144 c-35 -22 -52 -79 -36 -119 18 -43 41 -58 88 -58 99 0 134
134 47 179 -36 18 -68 17 -99 -2z"/>
<path d="M3196 1839 c-21 -16 -26 -29 -26 -64 0 -35 5 -48 26 -64 15 -12 39
-21 54 -21 15 0 39 9 54 21 21 16 26 29 26 63 0 76 -74 112 -134 65z"/>
<path d="M6184 1820 c-31 -12 -35 -21 -42 -112 l-7 -82 -60 -16 c-77 -19 -114
-40 -153 -85 -56 -63 -66 -92 -66 -190 0 -104 12 -133 79 -201 57 -56 101 -74
186 -74 112 0 165 33 175 112 5 35 14 54 31 68 22 17 53 18 53 1 0 -10 110
-154 129 -168 25 -19 95 -16 114 5 36 40 23 77 -68 190 -47 58 -85 111 -85
118 0 7 30 41 66 75 83 81 90 93 70 125 -18 27 -54 39 -87 29 -12 -4 -53 -36
-90 -71 -113 -106 -135 -90 -125 92 5 100 3 130 -8 153 -20 38 -65 50 -112 31z
m1 -370 c68 -42 82 -152 27 -202 -73 -67 -148 -52 -199 39 -26 47 -14 93 40
151 37 38 82 43 132 12z"/>
<path d="M1317 1802 c-15 -17 -17 -56 -17 -359 l0 -340 23 -21 c34 -32 96 -30
128 4 22 23 24 36 27 129 l4 103 44 6 c66 9 62 11 170 -135 12 -15 40 -51 64
-79 39 -47 45 -50 89 -50 100 0 119 58 50 150 -23 30 -56 72 -75 94 -39 44
-41 54 -16 63 39 14 74 48 102 96 25 44 30 63 30 120 0 105 -36 168 -123 216
-35 20 -53 21 -261 21 -203 0 -224 -2 -239 -18z m400 -162 c64 -38 52 -114
-22 -138 -23 -7 -74 -12 -124 -10 l-86 3 -3 69 c-2 38 -1 75 2 83 4 10 30 13
103 13 80 0 104 -4 130 -20z"/>
<path d="M4487 1802 c-15 -17 -17 -57 -17 -364 0 -321 1 -346 18 -361 16 -15
49 -17 256 -17 221 0 240 1 279 21 85 43 112 89 112 190 0 78 -24 130 -72 160
-37 23 -40 31 -19 52 8 8 26 31 40 52 54 80 21 203 -70 258 l-45 27 -233 0
c-213 0 -234 -2 -249 -18z m421 -162 c29 -27 28 -61 -1 -89 -22 -20 -32 -21
-148 -19 l-124 3 -3 49 c-5 78 -8 76 131 76 110 0 126 -2 145 -20z m1 -281
c53 -19 66 -67 30 -113 -20 -26 -21 -26 -159 -26 -155 0 -150 -3 -150 80 0 36
5 52 18 59 23 14 221 14 261 0z"/>
<path d="M3206 1605 l-27 -25 3 -354 3 -354 24 -26 c34 -37 83 -35 122 3 l29
29 0 131 c0 72 3 131 6 131 3 0 26 -18 51 -40 41 -36 51 -40 100 -40 92 0 171
51 224 145 16 28 23 62 27 117 4 69 2 84 -21 131 -76 153 -227 206 -338 118
l-38 -32 -7 26 c-16 63 -108 87 -158 40z m345 -158 c93 -62 82 -195 -18 -233
-52 -20 -91 -8 -129 41 -48 63 -28 149 44 197 36 24 62 23 103 -5z"/>
<path d="M2195 1609 c-79 -19 -151 -87 -180 -170 -16 -48 -20 -169 -6 -197 5
-9 14 -29 21 -44 19 -40 74 -95 119 -118 59 -30 198 -29 253 2 22 13 46 35 54
50 13 25 12 29 -12 57 -29 35 -73 41 -120 16 -47 -24 -89 -19 -129 16 -63 55
-54 59 128 59 192 0 197 2 197 89 0 157 -166 280 -325 240z m98 -130 c28 -15
67 -50 67 -61 0 -4 -45 -8 -100 -8 l-100 0 17 26 c15 23 62 52 86 54 5 0 18
-5 30 -11z"/>
<path d="M2813 1610 c-58 -14 -101 -40 -145 -88 -127 -142 -78 -376 95 -450
41 -18 187 -15 225 3 35 18 82 69 82 90 0 21 -50 75 -70 75 -9 0 -40 -10 -68
-21 -61 -25 -88 -21 -136 22 -115 101 16 288 146 209 45 -27 74 -25 103 6 35
37 32 70 -9 109 -51 48 -139 65 -223 45z"/>
<path d="M4020 1601 c-77 -27 -139 -95 -164 -181 -19 -65 -18 -138 2 -177 5
-10 15 -29 21 -43 19 -40 62 -84 112 -113 40 -24 56 -27 135 -27 73 0 95 4
124 21 63 39 74 69 39 113 -24 30 -58 34 -112 11 -61 -25 -95 -20 -133 21 -19
20 -32 40 -29 45 4 5 77 9 164 9 186 0 186 0 185 94 -1 170 -177 286 -344 227z
m137 -131 c17 -10 37 -28 43 -39 10 -21 8 -21 -90 -21 -98 0 -100 0 -90 21 13
23 67 59 90 59 8 0 29 -9 47 -20z"/>
<path d="M5430 1606 c-97 -26 -163 -89 -196 -188 -32 -98 -1 -211 80 -286 61
-56 104 -72 193 -72 115 0 198 52 253 160 29 58 28 183 -2 240 -34 64 -107
126 -169 144 -62 19 -97 19 -159 2z m147 -165 c31 -23 41 -38 46 -68 27 -167
-166 -229 -238 -76 -22 47 -12 86 36 134 50 50 96 53 156 10z"/>
</g>
</svg>
